Patient4_TMGait_0pt5_01_right_06_EMG.mot
version=1
nRows=40
nColumns=33
inDegrees=no
endheader
time	1LAddLong	2LGlutMax	3LGlutMed	4LIliopsoas	5LSemiMemb	6LBicFemLong	7LRecFem	8LVastMed	9LVastLat	10LGasMed	11LTibAnt	12lTibPost	13LPeroneusLong	14LSol	15LExtDigLong	16LFlexDigLong	17RAddLong	18RGlutMax	19RGlutMed	20RIliopsoas	21RSemiMemb	22RBicFemLong	23RRecFem	24RVastMed	25RVastLat	26RGasMed	27RTibAnt	28RTibPost	29RPeroneusLong	30RSol	31RExtDigLong	32RFlexDigLong
7.3	0.01358	0.24429	0.000153	0.011597	-0.088959	0.11185	0.10437	0.03006	0.053711	-0.080109	-0.027466	-0.010223	0.17639	0.24643	-0.04837	0.007782	-0.016937	-0.097809	-0.35431	0.003662	-0.028229	0.013733	0.39887	-0.056	-0.018768	-0.000916	-0.45288	-0.003815	-0.14648	-0.073547	0	-0.004425
7.301	0.018921	0.26321	0.05722	0.014343	0.039368	0.013123	0.10468	0.028992	0.10361	0.159	-0.043793	-0.003357	-0.013733	-0.093689	-0.011292	0.019073	-0.007324	-0.075226	-0.46753	-0.012665	-0.042114	0.007629	0.513	-0.045929	-0.044098	0.00061	0.020752	-0.007019	-0.14236	-0.17563	0.005951	-0.001068
7.302	0.017242	0.21774	0.042267	0.009155	0.098419	-0.040283	0.13138	0.028229	-0.011749	0.26825	-0.052185	-0.007019	-0.56229	-0.50797	-0.049133	0.015564	-0.002289	-0.085449	-0.38177	-0.02533	-0.027161	0.021515	0.60699	-0.030365	-0.033875	-0.000916	0.18677	-0.007172	-0.14191	-0.18524	-0.00351	-0.006409
7.303	0.060272	0.19867	-0.008545	-0.00412	0.090179	0.027771	0.14877	0.009613	-0.21286	0.11475	-0.050354	-0.036316	-0.41397	-0.64362	0.080261	0.017853	0.002136	-0.13443	-0.32883	-0.005646	-0.033417	-0.015106	0.52795	-0.001373	-0.015717	-0.000916	-0.001068	-0.005493	-0.091248	-0.1445	0.000153	-0.00824
7.304	0.037384	0.21469	0.033875	0.008087	0.016022	0.042725	0.072937	0.002289	-0.2063	0.057526	-0.027008	0.01709	0.18219	-0.50964	0.081329	-0.017395	0.015411	-0.16037	-0.22476	-0.079956	-0.010834	-0.002136	0.40054	-0.020752	-0.012207	-0.003052	0.14633	-0.008545	-0.15305	-0.058441	-0.002136	-0.010986
7.305	0.019989	0.23789	0.040436	0.011749	-0.034027	0.039215	0.049591	-0.000458	-0.065613	0.16434	0.013885	0.08316	0.17197	-0.3183	0.050201	-0.01358	0.031433	-0.12512	-0.16708	-0.14236	-0.009155	-0.002747	0.28656	0.00885	-0.032043	-0.010681	0.4126	-0.006104	-0.067902	0.055695	-0.006409	-0.006714
7.306	-0.013275	0.23224	0.014343	0.005798	-0.035095	0.013733	0.059967	0.001984	-0.009155	0.14282	0.038605	0.053253	-0.20706	-0.14526	0.086517	-0.002136	0.029755	-0.029907	-0.21164	-0.071564	-0.018311	0.004883	0.1532	-0.025177	-0.018921	-0.013275	0.58075	-0.00885	-0.054474	0.14938	-0.003204	-0.001526
7.307	-0.011139	0.20783	-0.079041	0.003967	-0.067749	0.022888	0.091553	-0.010071	0.020599	0.041656	0.041809	-0.075226	-0.079041	0.36392	0.12634	-0.005646	0.013885	-0.098724	-0.36484	0.030212	-0.015717	-0.010071	0.028229	-0.041351	-0.028229	-0.013733	0.49835	-0.006256	0.18845	0.18646	-0.002289	0.005798
7.308	-0.01358	0.19928	-0.11292	0.01709	-0.078888	0.025635	0.12131	0.005188	0.010834	-0.12253	0.027771	0.011444	0.071869	0.51895	0.090027	0.007782	0.003204	-0.10315	-0.3714	0.06546	-0.034637	-0.005341	-0.059509	-0.056915	-0.011292	-0.002899	0.17364	-0.000916	0.41519	0.1033	-0.005951	0.000763
7.309	0.016327	0.17883	-0.089722	0.015869	0.027924	-0.034027	0.11383	0.012512	0.036316	-0.19745	0.027924	0.034943	0.22629	0.28275	0.020447	-0.000916	0.007019	-0.075989	-0.31677	0.177	-0.041504	-0.006104	-0.19073	-0.11368	-0.005188	-0.000763	-0.035248	0.000305	0.242	-0.033875	-0.000305	0.004425
7.31	0.023041	0.18265	-0.03418	0.001373	0.075531	-0.081329	0.13153	0.014496	0.015259	-0.21469	0.036926	0.019684	0.20065	0.007477	0.087891	0.006714	0.023041	-0.095978	-0.36148	0.11993	-0.045624	-0.035706	-0.31815	-0.085907	-0.010681	-0.01297	-0.054016	-0.006866	-0.15793	-0.02243	0	-0.00061
7.311	0.004578	0.21301	-0.056305	-0.010681	0.083771	-0.029602	0.15121	0.032196	0.002136	-0.22797	0.036774	0.007019	-0.063324	-0.383	0.002899	0.02594	0.024109	-0.086212	-0.12573	-0.11963	-0.044861	-0.019073	-0.26215	-0.064087	-0.033264	-0.012207	0.1712	-0.000763	-0.88547	0.030975	-0.00061	-0.011292
7.312	-0.007782	0.19073	-0.092926	-0.031281	0.074005	0.041962	0.18936	0.015869	-0.017395	-0.33447	-0.013123	-0.009613	-0.060883	-0.48752	-0.18478	0.009003	0.029297	-0.16052	-0.32044	-0.19394	-0.050659	-0.013733	-0.20966	-0.049438	-0.030365	-0.00061	0.34119	-0.001526	-0.85892	-0.095215	-0.003967	-0.003357
7.313	0.002747	0.19058	-0.091858	-0.012665	0.038605	0.090027	0.17822	0.011749	-0.035095	-0.27313	-0.033722	-0.024414	0.3302	-0.24292	-0.23361	0.019073	0.027313	-0.10925	-0.066833	-0.1329	-0.047913	-0.007782	-0.17883	-0.058594	-0.016937	-0.00061	0.46265	-0.000458	-0.23651	-0.075684	-0.003815	0.002441
7.314	-0.010681	0.15991	-0.018311	0.028381	0.023346	0.15091	0.15518	0.003357	-0.046997	-0.13596	-0.010681	-0.19379	0.4187	-0.099792	-0.18005	0.014496	0.016327	-0.16464	-0.28564	0.1471	-0.045319	-0.00824	-0.16922	-0.026245	-0.035095	-0.002136	0.59052	-0.000153	-0.074615	-0.16617	0.001984	-0.003052
7.315	-0.008698	0.19302	0.073395	0.004578	-0.034637	0.2948	0.20493	0.011902	-0.04364	-0.07309	-0.030823	-0.025787	0.74249	-0.01358	-0.12161	-0.062866	0.020599	-0.16129	-0.3212	0.23987	-0.03952	-0.01358	-0.11917	0.02182	-0.05249	-0.001373	0.19241	-0.000763	-0.16586	-0.16296	-0.000763	-0.015717
7.316	-0.008392	0.21729	0.059662	0.020905	-0.033264	0.16373	0.20142	0.007477	0.012054	-0.019684	0.016327	0.063171	-0.41214	0.13245	-0.028534	-0.059509	0.021973	-0.16571	-0.20081	0.092468	-0.038147	-0.004425	0.11612	0.006409	-0.028839	-0.014496	0.10269	0.000458	-0.31036	-0.045166	-0.001678	-0.012817
7.317	0.005951	0.19577	0.14938	0.015411	-0.022125	0.010071	0.1799	0.001373	0.009918	0.016632	0.032959	0.09903	-0.60867	0.11139	0.007324	0.004578	0.013733	-0.1416	-0.096588	-0.057068	-0.041809	0.016479	0.1944	0.005188	-0.023651	-0.012817	0.000458	0.002747	-0.69885	-0.01709	-0.004883	-0.019226
7.318	0.006561	0.1326	0.010834	0.024872	0.018158	-0.028076	0.20462	0.015869	0.033875	0.1149	0.007019	0.18616	0.30685	0.059967	0.099182	0.027618	0.005035	-0.12665	-0.25513	-0.093689	-0.028839	0.003967	0.094299	0.059357	-0.001831	0.015411	-0.27573	0.002136	-0.53192	-0.061493	-0.007324	-0.01358
7.319	0.014343	0.10895	-0.11688	0.008392	0.035248	-0.15366	0.22659	0.011597	0.098419	0.26062	-0.017853	-0.053406	0.9108	-0.040894	0.14252	-0.001373	-0.007019	-0.20401	-0.27786	-0.10956	-0.027466	-0.009918	0.048218	0.003204	0.010223	0.000916	-0.21042	0.000305	-0.064697	0.011444	-0.000153	-0.014954
7.32	0.031738	0.13107	-0.042267	0.000763	0.021362	-0.059052	0.13809	0.007935	0.095062	0.2858	-0.031891	0.12619	0.38254	-0.10483	0.062103	-0.003052	-0.019379	-0.16419	-0.29633	-0.014343	-0.021362	0.009918	0.020599	0.00946	-0.001984	0.000458	0.029755	-0.000916	0.23972	0.073395	-0.001678	-0.014496
7.321	0.031281	0.10452	-0.16968	0.003967	0.039673	-0.14786	0.076447	0.002441	0.11063	0.28671	-0.004578	-0.1149	-0.44388	0.011597	-0.04425	-0.010071	-0.043335	-0.16632	-0.35034	0.003204	-0.023804	-0.028839	0.040741	-0.022736	-0.005646	-0.001831	0.068817	-0.000153	0.1648	0.069427	0.000763	-0.010529
7.322	0.011749	0.089417	-0.17532	-0.001984	0.018921	-0.24902	0.18356	-0.001526	0.072021	0.11337	0.004578	-0.13412	0.32623	0.098724	-0.030823	-0.016174	-0.037994	-0.09964	-0.24231	0.042267	-0.029297	-0.020752	-0.000916	-0.070496	-0.019836	-0.005646	-0.14786	0.001984	0.14358	-0.015564	-0.006409	-0.008698
7.323	0.003357	0.11078	-0.080566	0.00473	0.012512	-0.20309	0.20538	0.006409	0.040894	-0.16937	-0.015106	0.006561	-0.26306	0.029602	-0.025024	0.014038	-0.028534	-0.16052	-0.2536	-0.015717	-0.037079	-0.050049	0.097809	-0.05661	-0.015106	-0.010071	-0.19547	-0.001221	-0.039368	-0.019531	-0.003357	-0.009155
7.324	-0.002289	0.028839	-0.011749	-0.012207	-0.006866	-0.068512	0.1506	0.018616	0.039978	-0.18677	0.025635	0.009613	0.14374	0.047913	0.028687	0.02182	-0.013733	-0.19409	-0.12604	-0.11215	-0.032806	-0.036316	0.15411	-0.063782	-0.00351	-0.00946	-0.32638	0.001831	0.03067	-0.006409	-0.003357	-0.001678
7.325	-0.007477	0.005188	0.014038	-0.008392	-0.04837	0.007935	0.14557	0.01709	-0.048218	0.24628	0.01709	-0.015259	0.90424	0.18784	0.20828	0.012054	0	-0.16983	0.17395	-0.19302	-0.023804	-0.040436	0.14908	-0.04715	-0.012665	-0.000916	-0.39932	-0.001984	0.41534	-0.091095	-0.007935	0.000305
7.326	0.006714	0.024567	0.092773	-0.035248	-0.097351	-0.054169	0.16235	0.014954	-0.01358	0.22201	-0.00946	-0.010681	1.1337	-0.020905	0.21606	0.00473	0.002594	-0.14816	0.018616	-0.053711	-0.027161	-0.025787	0.15091	-0.064697	-0.00412	-0.002441	-0.63538	0.002289	-0.14404	-0.13184	-0.000916	0.001678
7.327	0.00412	0.047302	-0.030212	-0.033112	-0.06897	-0.18982	0.19333	0.007324	-0.014343	0.29037	0.014801	-0.00351	-0.77362	-0.056763	0.056458	0.010834	0.004272	-0.14191	-0.15243	0.12116	-0.025177	-0.01297	0.13702	-0.018005	-0.007172	0	-0.74371	0.001068	-0.35584	-0.051727	-0.00351	0.001678
7.328	0.029602	0.028229	-0.12085	-0.012665	0.025635	-0.12283	0.1622	0.009155	-0.008545	0.2623	0.039978	0.003204	-0.8638	0.11185	-0.10147	0.015259	-0.000153	-0.16708	-0.13138	0.22064	-0.026093	-0.018616	0.17853	-0.089874	-0.001526	0.003662	-0.33005	0.002441	-0.25955	0.019379	-0.001831	-0.005035
7.329	0.030212	0.000916	-0.060272	-0.006409	0.054016	0.016174	0.14496	0.015717	-0.003967	-0.35507	0.007935	0.002899	0.021973	-0.021362	-0.16846	-0.018311	0.014038	-0.20462	-0.26703	0.24902	-0.03479	-0.030212	0.15213	-0.079803	-0.010223	0.007324	0.29526	0.003815	-0.16022	-0.094757	-0.003052	0.000916
7.33	0.01358	-0.001068	-0.055847	0.005035	0.048676	0.11383	0.11597	0.022888	0.004578	-0.30731	0.005493	-0.030518	-0.48904	-0.028839	-0.11917	0.011902	0.004425	-0.20767	-0.16785	0.075989	-0.016632	-0.0354	0.19684	-0.092316	0.00061	0.005493	0.35584	0.000763	-0.10193	-0.089874	0.001984	0.005798
7.331	0.012512	-0.008087	-0.002289	0.014343	0.006256	0.14038	0.13016	0.017242	0.029755	0.13412	0.010681	0.010223	-0.26504	-0.23346	-0.24063	0.028839	0.003815	-0.2092	0.046692	-0.017395	-0.028839	-0.006866	0.18265	-0.080872	0.004883	-0.008545	0.56427	-0.001068	-0.17075	0.075684	0.000305	-0.009155
7.332	0.012817	-0.029144	-0.056	0.018158	-0.058136	0.074768	0.1561	0.006561	0.089722	0.38559	-0.040894	0.035858	0.45059	-0.24307	-0.095825	-0.004883	0.005341	-0.25436	0.021515	-0.027771	-0.015717	-0.014191	0.1506	-0.081482	0.014801	-0.007019	1.03	-0.000153	-0.26535	0.083618	-0.000916	-0.009308
7.333	0.015259	-0.057373	-0.12451	0.018463	0.00824	-0.014038	0.17029	0.002441	0.057983	0.36362	-0.043945	-0.075226	0.53253	-0.070801	0.10651	-0.014343	0.003052	-0.2739	-0.07843	0.050049	-0.021973	-0.022888	0.15488	-0.078278	-0.009003	0.006714	0.56808	0	-0.14557	0.046387	0.001068	0.000153
7.334	0.019226	-0.067139	-0.13138	-0.009766	0.062561	-0.06897	0.17654	0.007782	0.030823	-0.11368	-0.011902	-0.007324	-0.17975	-0.17761	0.20737	-0.076447	0.003052	-0.24124	-0.38803	0.032959	-0.015411	-0.027161	0.1828	-0.04837	-0.003357	0.00351	0.52307	-0.001678	-0.063171	-0.009155	-0.002441	-0.001526
7.335	0.012207	-0.025177	0.17349	0.005188	0.072327	-0.026245	0.19501	0.013885	0.010223	0.084839	0.013123	0.12054	-0.29007	-0.082703	0.2092	-0.03479	0.008545	-0.26581	-0.39108	0.000153	-0.023499	-0.023193	0.19119	-0.030365	0.007629	-0.004425	0.68451	0.000305	-0.18143	-0.023651	0.000763	-0.007019
7.336	-0.000458	-0.015411	0.26138	0.008392	0.009766	0.045166	0.20493	0.010223	-0.017548	0.12207	0.00824	-0.035248	0.020905	-0.15182	0.065002	0.038757	0.006714	-0.2243	-0.075684	-0.03479	-0.017395	-0.02243	0.2475	-0.023956	0.003357	-0.010376	0.33829	0.001221	-0.16403	0.027313	-0.000763	-0.00885
7.337	-0.001373	0.002289	0.16113	0.007629	-0.040131	0.063019	0.19791	0.010529	-0.050354	-0.18936	0.015106	-0.025482	0.16007	-0.21835	0.025482	0.038757	0.012817	-0.19272	-0.090179	0.029449	-0.015411	-0.031128	0.24033	-0.05722	-0.004425	-0.006409	-0.11963	0	0.074463	0.029755	0.002747	-0.003967
7.338	-0.009613	0.010529	0.16022	0.03006	-0.014801	0.053101	0.099487	0.014191	-0.063629	0.016785	0.000763	0.00946	-0.22324	-0.40665	0.005646	-0.023041	0.009155	-0.22659	-0.064087	0.036163	-0.002899	-0.014191	0.15625	-0.006256	0.011292	-0.002899	-0.28107	0.010223	0.080566	-0.017548	-0.001221	-0.001526
7.339	-0.010681	-0.018921	0.058746	0.016479	0.014343	0.082092	0.080566	0.022125	-0.052185	0.37048	-0.005493	-0.023346	-0.16846	-0.57785	-0.051727	-0.020294	0.00412	-0.24597	-0.032349	0.053406	0.001831	-0.023651	0.17761	-0.044403	0.002594	-0.016479	-0.58166	-0.000153	0.015106	-0.034485	0.000763	-0.007019
